# xmcd
#
# Track frame offsets:
#	182
#	13497
#	25012
#	39027
#	51912
#	65040
#	78300
#	91905
#	103125
#	115737
#	127850
#	140432
#	151825
#	165380
#	177507
#	190867
#	204075
#	217257
#	230330
#	243767
#	257922
#	272420
#	288082
#
# Disc length: 4033 seconds
#
# Revision: 0
# Processed by: cddbd v1.5.1PL2 Copyright (c) Steve Scherf et al.
# Submitted via: dBpowerAMP V4.0
#
DISCID=330fbf17
DTITLE=Blind Lemon Jefferson  - Best Of Blind Lemon Jefferson 
DYEAR=1998
DGENRE=Blues
TTITLE0=Long Lonesome Blues
TTITLE1=Jack O' Diamond Blues
TTITLE2=That Black Snake Moan
TTITLE3=Bad Luck Blues
TTITLE4=Match Box Blues
TTITLE5=Easy Rider Blues
TTITLE6=Match Box Blues
TTITLE7=Rising High Water Blues
TTITLE8=Rambler Blues
TTITLE9=See That My Grave's Kept Clean
TTITLE10=Blind Lemon's Penitentiary Blues
TTITLE11='Lectric Chair Blues
TTITLE12=Lemon's Worried Blues
TTITLE13=Sad News Blues
TTITLE14=Christmas Eve Blues
TTITLE15=Happy New Year Blues
TTITLE16=Dynamite Blues
TTITLE17=Big Night Blues
TTITLE18=Empty House Blues
TTITLE19=Southern Woman Blues
TTITLE20=Bakershop Blues
TTITLE21=Long Distance Moan
TTITLE22=Cat Man Blues
EXTD=
EXTT0=
EXTT1=
EXTT2=
EXTT3=
EXTT4=
EXTT5=
EXTT6=
EXTT7=
EXTT8=
EXTT9=
EXTT10=
EXTT11=
EXTT12=
EXTT13=
EXTT14=
EXTT15=
EXTT16=
EXTT17=
EXTT18=
EXTT19=
EXTT20=
EXTT21=
EXTT22=
PLAYORDER=
